<?xml version="1.0" encoding="UTF-8"?>
<svg version="1.1" xmlns="http://www.w3.org/2000/svg" width="359" height="317">
<path d="M0 0 C0.33 0.66 0.66 1.32 1 2 C2.14984375 1.84015625 3.2996875 1.6803125 4.484375 1.515625 C15.88445933 0.10189423 30.29109928 -0.9473081 40.30078125 5.4765625 C46.25461525 10.38763461 52.56175095 17.35679382 54.51171875 25.0078125 C54.83849115 28.94360453 54.51563725 31.23643785 52.26953125 34.5625 C49.95283025 37.17825879 47.53891741 39.60014692 45 42 C43.99646484 43.01320313 43.99646484 43.01320313 42.97265625 44.046875 C34.99195399 51.68484772 25.69088154 53.60393987 15 55 C15 58.02667933 16.71758791 59.17050961 18.6875 61.4375 C24.87005663 68.83501229 30.13467444 76.8288651 35.51367188 84.81835938 C37.62460449 87.91679792 39.80553925 90.96026549 42 94 C42.99 93.67 43.98 93.34 45 93 C45 93.99 45 94.98 45 96 C63.12561821 90.82125194 83.01723916 80.13390093 92.5 63.3125 C95.83062868 56.21799012 96.496796 48.49038801 94 41 C93.34 40.67 92.68 40.34 92 40 C92 39.34 92 38.68 92 38 C85.70979786 39.36414022 79.47420818 40.86205048 73.25 42.5 C72.42628906 42.71269531 71.60257812 42.92539063 70.75390625 43.14453125 C66.71614236 44.204363 62.83370164 45.31691148 59 47 C59.04125 48.093125 59.0825 49.18625 59.125 50.3125 C59 54 59 54 57 57 C56.37182595 59.72684645 55.79785615 62.44499311 55.25 65.1875 C53.81015007 71.92312934 52.03641713 77.04752316 47 82 C45.515 81.505 45.515 81.505 44 81 C44.45246094 80.18015625 44.90492188 79.3603125 45.37109375 78.515625 C47.17668788 74.61865926 48.14878652 70.92470928 49.0625 66.75 C49.23313965 66.00218262 49.4037793 65.25436523 49.57958984 64.48388672 C50.67485306 59.6385261 51.67166225 54.78026395 52.5078125 49.8828125 C53 48 53 48 55 45 C56.60397759 40.48881304 57.27286246 36.12343554 57.875 31.375 C58.82710705 24.28709194 60.70039128 17.75510062 63 11 C63.47566406 9.40285156 63.47566406 9.40285156 63.9609375 7.7734375 C65.25175685 4.32801743 67.00714231 3.04774473 70 1 C70.495 2.485 70.495 2.485 71 4 C72.46373047 3.96519531 72.46373047 3.96519531 73.95703125 3.9296875 C75.22933594 3.91164063 76.50164062 3.89359375 77.8125 3.875 C79.07707031 3.85179687 80.34164062 3.82859375 81.64453125 3.8046875 C85 4 85 4 88 6 C88.33215578 8.86372148 88.46380385 11.45016265 88.4375 14.3125 C88.45748047 15.07240234 88.47746094 15.83230469 88.49804688 16.61523438 C88.49359937 21.73431646 87.72655942 24.24046217 84 28 C83.04867187 29.10794922 83.04867187 29.10794922 82.078125 30.23828125 C81.47484375 30.92277344 80.8715625 31.60726562 80.25 32.3125 C79.63640625 33.00988281 79.0228125 33.70726562 78.390625 34.42578125 C77.93171875 34.94527344 77.4728125 35.46476562 77 36 C77.66644531 35.7834375 78.33289063 35.566875 79.01953125 35.34375 C85.56389856 33.36671037 92.15128269 31.81998452 99 33 C100.61743164 34.27807617 100.61743164 34.27807617 102 36 C102.32783495 38.98595615 102.46402798 41.70430808 102.4375 44.6875 C102.45748047 45.46544922 102.47746094 46.24339844 102.49804688 47.04492188 C102.4931142 52.95919429 101.00180267 56.95842999 98 62 C97.5771875 62.82886719 97.154375 63.65773437 96.71875 64.51171875 C86.36227283 79.5050732 71.08957823 89.97837823 54.72265625 97.23828125 C51.85624162 98.53372784 49.41499488 99.95072236 47 102 C48.30406884 104.01920337 49.63823419 106.01924973 51 108 C51.33 108 51.66 108 52 108 C52.36174071 114.39075249 52.36174071 114.39075249 50.8125 117 C49 118 49 118 46.5625 117.86328125 C44 117 44 117 42.48046875 114.91796875 C42.05378906 114.01691406 41.62710938 113.11585938 41.1875 112.1875 C37.94071267 105.76052611 34.08384046 99.92196825 30 94 C29.43410156 93.17886719 28.86820313 92.35773438 28.28515625 91.51171875 C26.53675145 88.99812974 24.77181764 86.49714421 23 84 C22.61021973 83.45021484 22.22043945 82.90042969 21.81884766 82.33398438 C19.67330232 79.31022776 17.51981428 76.29267779 15.3515625 73.28515625 C13.9589175 71.35215614 12.60379366 69.41106886 11.2734375 67.43359375 C7.9691738 62.63622693 5.4937173 60.9329746 0 59 C-1.3576796 58.03331294 -2.69661076 57.03872723 -4 56 C-4.14695313 56.63421875 -4.29390625 57.2684375 -4.4453125 57.921875 C-13.570288 95.89016388 -13.570288 95.89016388 -24 110.3125 C-24.495 111.00988281 -24.99 111.70726562 -25.5 112.42578125 C-25.995 112.94527344 -26.49 113.46476562 -27 114 C-27.99 114 -28.98 114 -30 114 C-28.98356085 110.6118695 -27.79518236 107.5974274 -26.1875 104.4375 C-14.48317577 81.33006576 -7.86879956 53.3213948 -6.42578125 27.57421875 C-6.36622505 26.51578011 -6.36622505 26.51578011 -6.3054657 25.43595886 C-6.12234907 21.98720039 -5.98091197 18.54214114 -5.89526367 15.08959961 C-5.84732666 13.84573486 -5.79938965 12.60187012 -5.75 11.3203125 C-5.72421875 10.21961426 -5.6984375 9.11891602 -5.671875 7.98486328 C-4.79895756 4.10685141 -2.96694179 2.545877 0 0 Z M5.26953125 6.51953125 C4.46749268 6.60952393 3.6654541 6.6995166 2.83911133 6.79223633 C2.23220459 6.86079834 1.62529785 6.92936035 1 7 C0.9498877 7.82089111 0.89977539 8.64178223 0.84814453 9.48754883 C0.65575661 12.5873501 0.45745092 15.68670528 0.25537109 18.78588867 C0.12804398 20.76518143 0.0073005 22.74489423 -0.11328125 24.72460938 C-0.55761332 31.47503889 -1.19509152 38.01739355 -2.60205078 44.6394043 C-3.02259569 47.1340354 -3.06681106 49.47493511 -3 52 C2.22971531 51.44826797 7.45561422 50.87173306 12.67919922 50.26464844 C14.65045323 50.03985995 16.62388058 49.83426192 18.59765625 49.6328125 C28.19425463 48.46742633 38.41732559 45.49625888 45.9375 39.125 C48.2870557 36.10703986 48.2870557 36.10703986 48.3125 32.3125 C46.56113952 24.29311253 40.73011075 16.54344751 34.43359375 11.4375 C25.27773732 6.02922525 15.52156497 5.36582572 5.26953125 6.51953125 Z M70 9 C66.66675195 15.02225489 64.9720299 20.49878563 63.75 27.25 C63.57726562 28.13429688 63.40453125 29.01859375 63.2265625 29.9296875 C62.50173929 33.73788566 62 37.10031102 62 41 C62.55945313 40.71253906 63.11890625 40.42507812 63.6953125 40.12890625 C65.22882054 39.37774723 66.78772479 38.6763309 68.3671875 38.02734375 C74.0372028 35.56327168 77.82293476 32.98872411 81 27.609375 C82.81609681 22.87049739 83.10270668 17.94785918 82 13 C80.09681478 10.48896928 78.99625736 9.18179879 75.859375 8.609375 C73.90625 8.73958333 71.953125 8.86979167 70 9 Z " fill="#010101" transform="translate(210,28)"/>
<path d="M0 0 C3.65197073 2.34427816 6.79025078 5.09234483 10 8 C10.85980469 8.62261719 11.71960938 9.24523438 12.60546875 9.88671875 C16.52568051 13.34648149 17.8539103 16.51554019 18.36328125 21.69140625 C18.33814453 23.60759766 18.33814453 23.60759766 18.3125 25.5625 C18.30863281 26.84253906 18.30476563 28.12257813 18.30078125 29.44140625 C17.8070765 35.28251049 15.61928625 38.82804625 12.1875 43.5 C11.52105469 44.4178125 10.85460937 45.335625 10.16796875 46.28125 C7.94746081 49.06588698 5.56315837 51.53077937 3 54 C3.5983667 54.03440186 4.1967334 54.06880371 4.81323242 54.10424805 C16.67023759 54.83869233 27.24893118 55.60949196 38 61 C38.92554687 61.4434375 39.85109375 61.886875 40.8046875 62.34375 C50.1530088 67.11059939 58.78440152 73.3730889 66 81 C66.75152344 81.77730469 67.50304687 82.55460937 68.27734375 83.35546875 C70.53540201 86.821921 70.56670193 89.19881375 70.5625 93.3125 C70.58441406 94.56675781 70.60632813 95.82101563 70.62890625 97.11328125 C69.07120321 106.74007953 61.3992641 113.15960555 54.765625 119.7902832 C53.14704194 121.4153695 51.55401575 123.06284626 49.9609375 124.71289062 C42.4024188 132.39174856 34.42608446 137.83536589 25 143 C23.66657611 143.79151413 22.33320857 144.58312325 21 145.375 C6.9738361 151.83948992 -15.04465893 153.30655065 -29.63305664 148.15405273 C-32.52841828 146.94585357 -35.26323966 145.53030812 -38 144 C-38.79535156 143.59007812 -39.59070313 143.18015625 -40.41015625 142.7578125 C-50.69282126 136.74870518 -63.73688603 124.64338393 -67 113 C-67.90266913 106.56310944 -68.90378091 98.72849572 -65.0703125 93.234375 C-64.38710937 92.49703125 -63.70390625 91.7596875 -63 91 C-62.00506715 89.0471831 -62.00506715 89.0471831 -61.25 87.125 C-57.93554697 80.20901532 -51.34651762 75.96657351 -45 72 C-46.40695563 75.14290089 -48.11027565 77.4100843 -50.4375 79.9375 C-53.02062526 82.81538022 -55.10736591 85.6131811 -57 89 C-57.99 89.99 -57.99 89.99 -59 91 C-61.2301525 98.136488 -60.88422221 105.02489365 -57.4375 111.625 C-52.54395265 119.76181176 -46.28997632 125.99649009 -39 132 C-38.23816406 132.66257813 -37.47632812 133.32515625 -36.69140625 134.0078125 C-33.61506007 136.28493376 -30.59526545 137.65972703 -27.0625 139.125 C-25.87785156 139.62257812 -24.69320312 140.12015625 -23.47265625 140.6328125 C-8.80313695 146.4082138 8.30201075 144.73525398 23.04785156 139.23632812 C26.93132787 137.51263508 30.46629671 135.34418908 34 133 C34.85335937 132.46503906 35.70671875 131.93007812 36.5859375 131.37890625 C47.05782676 124.49124407 56.3843207 116.34234041 62 105 C62.33 104.34 62.66 103.68 63 103 C63.5649385 97.47012119 63.35444428 93.61236088 60 89 C60 88.34 60 87.68 60 87 C59.443125 86.773125 58.88625 86.54625 58.3125 86.3125 C56 85 56 85 53.734375 82.6953125 C39.55133132 68.71488373 21.60879085 61.8834778 1.9375 61.75 C1.17373047 61.729375 0.40996094 61.70875 -0.37695312 61.6875 C-5.70334524 61.65104907 -9.22745735 62.64054071 -14 65 C-17.47325181 66.1577506 -20.36067448 66.06866652 -24 66 C-19.0417468 59.38899573 -14.42999878 56.26486128 -6.25 54.9375 C-5.32703125 54.82277344 -4.4040625 54.70804688 -3.453125 54.58984375 C-0.63724094 53.91277609 0.20087075 53.2178921 2 51 C2.495 50.40703125 2.99 49.8140625 3.5 49.203125 C9.17087833 41.81916884 12.16667424 35.43945518 11 26 C10.21837461 23.46563888 9.21480453 21.38101688 8 19 C7.505 17.515 7.505 17.515 7 16 C5.6846659 15.29848848 4.34882408 14.63474075 3 14 C2 13 1 12 0 11 C-4.67821225 7.75124149 -9.37157005 5.52688261 -15.125 6.5625 C-19.87078928 8.93539464 -22.91096859 12.15805007 -25 17 C-25.38418193 18.59275424 -25.71540938 20.19897281 -26 21.8125 C-26.52333464 24.75158472 -27.15243396 27.50093754 -28.0234375 30.36328125 C-29.03102406 34.11553359 -29.40926559 37.49977083 -29.625 41.375 C-29.68409546 42.42071167 -29.68409546 42.42071167 -29.74438477 43.48754883 C-29.98588953 48.22794226 -29.99952374 52.94029856 -29.9375 57.6875 C-29.78159447 70.47792801 -30.96390646 83.2613377 -32 96 C-32.09112061 97.37091797 -32.09112061 97.37091797 -32.18408203 98.76953125 C-32.64782042 104.52500121 -32.64782042 104.52500121 -34.28881836 106.73828125 C-36 108 -36 108 -40 108 C-40.32936915 90.24953637 -40.18408147 72.63672864 -38.6875 54.9375 C-38.6285556 54.19905853 -38.56961121 53.46061707 -38.50888062 52.69979858 C-37.92082296 45.48276404 -37.25816755 38.59870942 -34.65356445 31.78735352 C-33.7774161 29.39128251 -33.51537437 27.02886168 -33.25 24.5 C-32.19503647 18.25740587 -29.23720861 14.55586048 -25 10 C-24.14148437 9.02353516 -24.14148437 9.02353516 -23.265625 8.02734375 C-16.78762936 1.02932552 -9.6280837 -3.26744922 0 0 Z " fill="#010101" transform="translate(74,18)"/>
<path d="M0 0 C1.86205078 -0.01836914 1.86205078 -0.01836914 3.76171875 -0.03710938 C12.68324018 -0.05136101 21.11829112 -0.04068567 28.125 6.1875 C32.56228261 11.97995271 33.64131474 18.03169943 34.125 25.125 C34.17889893 25.87096436 34.23279785 26.61692871 34.28833008 27.38549805 C34.49994387 32.61504106 34.49994387 32.61504106 32.8125 35.19140625 C31.125 36.1875 31.125 36.1875 28.125 36.1875 C27.95484375 35.1975 27.7846875 34.2075 27.609375 33.1875 C26.30191096 25.94834558 24.79616198 19.64368142 21.125 13.1875 C21.125 12.5275 21.125 11.8675 21.125 11.1875 C20.3825 10.89875 19.64 10.61 18.875 10.3125 C16.125 9.1875 16.125 9.1875 14.4609375 8.1640625 C3.09240709 3.41133239 -16.13702324 5.34105979 -27.49609375 9.51953125 C-36.75215965 13.99461819 -43.1980054 19.6691914 -48.25 28.625 C-49.18468378 32.45720349 -49.82141592 36.32241678 -48.875 40.1875 C-35.0098847 57.13668087 -2.61203693 60.78704073 17.89453125 63.0234375 C22.4479891 63.43410504 27.00679995 63.71605779 31.56982422 63.99560547 C35.99096989 64.32763494 40.36532253 64.91524814 44.75 65.5625 C45.52674072 65.66473877 46.30348145 65.76697754 47.10375977 65.87231445 C51.8264783 66.60412214 54.72426284 67.81282213 58.125 71.1875 C60.54525455 76.02800911 59.80085607 83.23972777 58.6171875 88.40234375 C57.66976481 90.57773662 56.54372166 92.27931937 55.125 94.1875 C54.403125 95.16976562 53.68125 96.15203125 52.9375 97.1640625 C46.15246377 105.71888087 39.65443523 108.63560631 29.125 111.1875 C27.97386719 111.54972656 26.82273437 111.91195312 25.63671875 112.28515625 C6.77431249 117.13189245 -12.86531238 109.80927666 -29.875 102.1875 C-30.55594727 101.8886792 -31.23689453 101.5898584 -31.93847656 101.28198242 C-37.45152877 98.71750381 -41.96244101 95.24666311 -46.625 91.375 C-47.73681641 90.48844727 -47.73681641 90.48844727 -48.87109375 89.58398438 C-55.27178981 84.31518879 -59.1565423 79.33913846 -60.125 70.8125 C-60.36199233 66.79292427 -60.2540998 64.80963443 -58.14453125 61.34765625 C-56.15948118 59.1236975 -54.14848004 57.11274459 -51.875 55.1875 C-51.545 56.1775 -51.215 57.1675 -50.875 58.1875 C-51.37 58.6825 -51.37 58.6825 -51.875 59.1875 C-52.15401699 61.50848937 -52.15401699 61.50848937 -52.1875 64.25 C-52.22488281 65.16910156 -52.26226562 66.08820313 -52.30078125 67.03515625 C-51.32542037 74.25640605 -47.86949775 78.78500328 -42.19116211 83.15795898 C-41.46807861 83.68333252 -40.74499512 84.20870605 -40 84.75 C-38.86606812 85.59123413 -38.86606812 85.59123413 -37.70922852 86.44946289 C-31.09997656 91.23983315 -24.40693313 94.9954349 -16.875 98.1875 C-16.25834473 98.45643066 -15.64168945 98.72536133 -15.00634766 99.00244141 C-7.31848391 102.31674755 0.30793852 104.68449135 8.5625 106.125 C9.2834082 106.25358398 10.00431641 106.38216797 10.74707031 106.51464844 C19.29890916 107.82396445 26.84997083 106.2228218 35 103.625 C42.76239669 101.1875 42.76239669 101.1875 46.125 101.1875 C46.5271875 100.383125 46.5271875 100.383125 46.9375 99.5625 C47.79632874 97.84484252 48.72226795 96.16019912 49.6875 94.5 C52.16635819 88.78784853 53.03513765 82.21178027 51.125 76.1875 C47.82623125 73.98307219 44.37514905 73.64547713 40.5 73.125 C34.31944444 72.28472222 34.31944444 72.28472222 32.125 71.1875 C29.92381782 70.80981727 27.71334866 70.48571961 25.5 70.1875 C24.31148438 70.0225 23.12296875 69.8575 21.8984375 69.6875 C18.47719625 69.27579594 15.06607569 69.07672716 11.6247406 68.91163635 C2.71964975 68.4624272 -5.84572841 67.17589268 -14.5625 65.25 C-15.24800934 65.10121399 -15.93351868 64.95242798 -16.63980103 64.7991333 C-30.39311735 61.76401489 -47.65860217 57.61728471 -56.875 46.1875 C-58.4020637 40.98979249 -56.79628591 35.4401974 -54.46484375 30.7109375 C-45.96072775 17.21300399 -34.63576558 7.24934573 -19.875 1.1875 C-13.27341773 -0.16621458 -6.71138242 0.00346305 0 0 Z " fill="#010101" transform="translate(84.875,192.8125)"/>
<path d="M0 0 C3.40370035 3.20406983 5.26053029 5.37656715 5.62890625 10.09375 C5.63284787 11.5626615 5.61023393 13.03185899 5.5625 14.5 C5.57345703 15.23347656 5.58441406 15.96695313 5.59570312 16.72265625 C5.50568829 23.43176171 2.6604169 27.63789938 -2.0625 32.3125 C-6.76293012 36.87171548 -11.87077548 40.9378308 -17 45 C-17.78503906 45.6290625 -18.57007813 46.258125 -19.37890625 46.90625 C-20.07886719 47.4528125 -20.77882812 47.999375 -21.5 48.5625 C-22.1084375 49.03816406 -22.716875 49.51382813 -23.34375 50.00390625 C-25 51 -25 51 -28 51 C-28 51.66 -28 52.32 -28 53 C-27.21625 53.226875 -26.4325 53.45375 -25.625 53.6875 C-17.82389305 56.51203872 -11.14829649 60.44121387 -4.453125 65.3046875 C-2.09581704 66.93378249 0.2791222 68.29120175 2.8125 69.625 C6.53506867 71.62295207 9.0741037 73.92405773 12 77 C14.11533967 78.53481412 16.25185211 80.02203071 18.42578125 81.47265625 C18.94527344 81.97667969 19.46476562 82.48070312 20 83 C20 84.32 20 85.64 20 87 C18 89 18 89 15.76171875 89.390625 C11.91996306 88.84723664 9.86892942 87.10402018 6.8125 84.75 C5.24435547 83.56664062 5.24435547 83.56664062 3.64453125 82.359375 C1 80 1 80 0.01171875 77.765625 C-0.32214844 77.18296875 -0.65601563 76.6003125 -1 76 C-2.99124215 75.61781444 -4.99323528 75.28983872 -7 75 C-9.59765625 73.4765625 -9.59765625 73.4765625 -12.0625 71.625 C-16.28375977 68.49073129 -20.46035175 65.75472953 -25.1875 63.4375 C-28 62 -28 62 -30 60 C-31.98821313 59.60235737 -33.98944339 59.26224651 -36 59 C-36.10957031 59.90363281 -36.21914062 60.80726563 -36.33203125 61.73828125 C-36.49058594 62.91777344 -36.64914063 64.09726562 -36.8125 65.3125 C-36.96332031 66.48425781 -37.11414063 67.65601563 -37.26953125 68.86328125 C-37.99931011 71.99703752 -38.3587207 73.22848822 -41 75 C-41.99 75 -42.98 75 -44 75 C-44.31870583 68.1301188 -44.17570861 62.15918324 -41.8515625 55.64453125 C-39.97123657 49.80517046 -38.93633223 44.00385761 -38.359375 37.8984375 C-38.25753906 36.83109375 -38.15570313 35.76375 -38.05078125 34.6640625 C-37.84967602 32.4649638 -37.66486504 30.26431622 -37.49609375 28.0625 C-36.7854295 20.99010633 -35.54366607 16.62243442 -30 12 C-22.13836569 6.14368104 -10.31442303 -2.02243589 0 0 Z M-30 16 C-30.27576987 18.3454654 -30.44971306 20.70357311 -30.5625 23.0625 C-30.90277778 29.90277778 -30.90277778 29.90277778 -32 31 C-32.21201708 33.05833253 -32.36932745 35.12240709 -32.5 37.1875 C-32.77747374 41.52302722 -33.22146882 45.72456629 -34 50 C-22.86368171 46.56159758 -9.01172033 38.01640846 -2.125 28.375 C-0.10473053 22.3141916 -0.0718049 16.40486912 -2.375 10.4375 C-3.91624207 7.95301384 -3.91624207 7.95301384 -6 6 C-14.03998239 5.06511833 -24.34377679 10.34377679 -30 16 Z " fill="#010101" transform="translate(247,205)"/>
<path d="M0 0 C2.4375 0.9375 2.4375 0.9375 3.625 2.5625 C5.64253629 8.45991377 6.74631626 13.76736541 6.73828125 20.00390625 C6.74256638 20.7598558 6.7468515 21.51580536 6.75126648 22.29466248 C6.75698036 23.88889573 6.75753187 25.48315504 6.75317383 27.07739258 C6.7500401 29.46938818 6.77341713 31.86011232 6.79882812 34.25195312 C6.88657776 54.98250094 1.88345992 70.08751323 -12.6953125 85.16015625 C-19.57202197 91.821383 -19.57202197 91.821383 -23.89453125 92.328125 C-25.61736328 92.25851563 -25.61736328 92.25851563 -27.375 92.1875 C-28.53644531 92.15140625 -29.69789063 92.1153125 -30.89453125 92.078125 C-31.77496094 92.03171875 -32.65539062 91.9853125 -33.5625 91.9375 C-37.13033729 82.25337022 -37.98771709 72.4592106 -38.56787109 62.2253418 C-38.68672698 60.13857194 -38.81711151 58.05276534 -38.94921875 55.96679688 C-39.3450261 49.52759765 -39.65230775 43.08250952 -39.8046875 36.6328125 C-39.83159668 35.61074707 -39.85850586 34.58868164 -39.88623047 33.53564453 C-39.50776702 30.49823274 -38.87627713 29.5699239 -36.5625 27.625 C-35.5725 27.068125 -34.5825 26.51125 -33.5625 25.9375 C-31.84862706 29.36524587 -32.1091864 33.30195729 -31.87890625 37.08203125 C-31.75461104 38.97591499 -31.63026019 40.86979507 -31.50585938 42.76367188 C-31.31551514 45.74069469 -31.12701922 48.7178232 -30.94018555 51.69506836 C-30.79983343 69.27573616 -30.79983343 69.27573616 -26.5625 85.9375 C-22.60691896 86.58330915 -19.08783583 86.96686774 -15.65234375 84.6484375 C-0.65332437 68.59026185 0.32593744 46.54713251 -0.125 25.75390625 C-0.44522372 19.40793427 -1.8908206 14.18575999 -4.46875 8.4140625 C-5.5625 5.9375 -5.5625 5.9375 -5.5625 2.9375 C-3.82691423 0.37979466 -3.1334402 -0.07642537 0 0 Z " fill="#010101" transform="translate(185.5625,15.0625)"/>
<path d="M0 0 C3.25 1.6875 3.25 1.6875 6 4 C6.70382812 4.37640625 7.40765625 4.7528125 8.1328125 5.140625 C10.60744113 6.5719433 12.22547166 7.74821465 14 10 C15.30073575 15.16924518 15.35685569 20.28130018 12.9375 25.12890625 C11.11996035 27.32036681 9.1341474 29.11070052 7 31 C5.8332824 32.12481605 4.67090251 33.25414022 3.51171875 34.38671875 C-2.88350746 40.57788541 -9.19952839 46.60790497 -17 51 C-17.96292969 51.54269531 -18.92585938 52.08539063 -19.91796875 52.64453125 C-29.85260795 58.13235911 -29.85260795 58.13235911 -37 58 C-33.82432494 53.17297391 -31.41951877 52.54133103 -26 51 C-23.32945077 49.79454614 -20.79333556 48.38986052 -18.25 46.9375 C-17.55406738 46.54191895 -16.85813477 46.14633789 -16.14111328 45.73876953 C-7.79825007 40.87386267 2.13580031 34.57687455 7 26 C7.61695986 21.52704104 7.32396089 17.90847967 5 14 C2.20212693 11.80132223 2.20212693 11.80132223 -1 10 C-1.7425 9.443125 -2.485 8.88625 -3.25 8.3125 C-10.04854381 5.06774045 -17.13284674 5.60030984 -24.19140625 7.79296875 C-32.10767336 11.19509189 -38.75124734 16.4938703 -43 24 C-43.9490944 27.67948005 -44.16106532 31.2056386 -44.24951172 34.99609375 C-44.27979462 36.18082275 -44.31007751 37.36555176 -44.34127808 38.58618164 C-44.38504074 40.49258423 -44.38504074 40.49258423 -44.4296875 42.4375 C-44.48447933 44.44330268 -44.53928804 46.44910506 -44.59509468 48.45487976 C-44.73169437 53.3905817 -44.86058788 58.32640709 -44.97412109 63.26269531 C-45.03833427 66.03680867 -45.11010132 68.81052888 -45.19021606 71.58422852 C-45.26530387 74.19378503 -45.32922612 76.80369182 -45.38082886 79.41381836 C-45.41741608 80.59854736 -45.4540033 81.78327637 -45.49169922 83.00390625 C-45.51755096 84.04361572 -45.54340271 85.0833252 -45.57003784 86.15454102 C-46.07023256 89.46479409 -46.93508695 91.37084193 -49 94 C-51.1875 94.8125 -51.1875 94.8125 -53 95 C-53.07571309 81.4380091 -52.98596084 67.88768318 -52.5300293 54.33227539 C-52.46775068 52.29975754 -52.41884291 50.26679078 -52.38256836 48.23364258 C-52.00529591 27.71230775 -52.00529591 27.71230775 -45.80297852 21.57202148 C-45.20799561 21.05325439 -44.6130127 20.5344873 -44 20 C-42.77023437 18.49566406 -42.77023437 18.49566406 -41.515625 16.9609375 C-34.05772251 8.4486419 -26.33263473 2.02368477 -15 0 C-10.0437821 -1.65207263 -5.09481601 -0.86835746 0 0 Z " fill="#010101" transform="translate(317,174)"/>
<path d="M0 0 C0.71767977 12.54610566 -0.38241186 26.23788843 -9 36 C-9.51304687 36.44472656 -10.02609375 36.88945313 -10.5546875 37.34765625 C-12.61197967 39.69964162 -13.21564973 42.15350109 -14.125 45.125 C-15.91666667 50.91666667 -15.91666667 50.91666667 -17 52 C-18.66816602 58.0255819 -19.64466534 64.26023122 -20.5625 70.4375 C-20.69398438 71.31841309 -20.82546875 72.19932617 -20.9609375 73.10693359 C-22.16706293 81.89855244 -22.44701458 90.68915977 -22.53344727 99.55639648 C-22.55334717 100.61286377 -22.57324707 101.66933105 -22.59375 102.7578125 C-22.60083984 103.6977002 -22.60792969 104.63758789 -22.61523438 105.60595703 C-23 108 -23 108 -24.33789062 109.82763672 C-26 111 -26 111 -29 111 C-29.68052259 88.68147636 -28.52037293 67.16325784 -20.85546875 46.01171875 C-20.00565008 43.01989137 -19.75213074 41.79522714 -21 39 C-21.763125 38.113125 -22.52625 37.22625 -23.3125 36.3125 C-28.9514664 29.74187828 -30.82565939 22.47318825 -31.31640625 13.91015625 C-30.96541657 10.68191783 -30.52190163 9.72828007 -28.0625 7.6875 C-26.5465625 6.8521875 -26.5465625 6.8521875 -25 6 C-24.82984375 6.76183594 -24.6596875 7.52367187 -24.484375 8.30859375 C-21.87548979 20.2459074 -21.87548979 20.2459074 -15 30 C-14.91234375 29.03320312 -14.8246875 28.06640625 -14.734375 27.0703125 C-14.0514955 22.32597133 -12.20905669 18.21805581 -10.25 13.875 C-9.91484375 13.08996094 -9.5796875 12.30492187 -9.234375 11.49609375 C-4.11638385 0 -4.11638385 0 0 0 Z M-10 27 C-10.33 28.32 -10.66 29.64 -11 31 C-10.34 29.68 -9.68 28.36 -9 27 C-9.33 27 -9.66 27 -10 27 Z " fill="#010101" transform="translate(348,19)"/>
<path d="M0 0 C4.68569011 18.61602369 7.47043687 45.01075894 -1 63 C-4.86045592 68.89694951 -10.16647728 73.91197917 -17 76 C-19.3320802 76.07646165 -21.66845878 76.09143299 -24 76 C-28.05517829 68.77607504 -28.61463765 62.44951472 -28.6015625 54.265625 C-28.61013275 53.06943542 -28.618703 51.87324585 -28.62753296 50.64080811 C-28.63896615 48.12628706 -28.64005962 45.61169991 -28.63134766 43.09716797 C-28.62499544 39.24723697 -28.67211397 35.40033639 -28.72265625 31.55078125 C-28.72719962 29.10156637 -28.72861045 26.65234324 -28.7265625 24.203125 C-28.74498199 23.05410706 -28.76340149 21.90508911 -28.78237915 20.72125244 C-28.69183499 12.93181954 -28.69183499 12.93181954 -26.61541748 10.13513184 C-24.95458984 8.73730469 -24.95458984 8.73730469 -22 7 C-21.99635437 7.62703323 -21.99270874 8.25406647 -21.98895264 8.90010071 C-21.94689516 15.47128357 -21.87738879 22.04178302 -21.79248047 28.61254883 C-21.76438707 31.05941914 -21.74311517 33.50637825 -21.72900391 35.95336914 C-21.70741338 39.48629842 -21.66067886 43.01817307 -21.609375 46.55078125 C-21.60814636 47.63144363 -21.60691772 48.71210602 -21.60565186 49.82551575 C-21.46530394 57.22951317 -19.94382868 63.21072274 -17 70 C-13.62537285 69.45276317 -11.91765 68.9451 -9 67 C-8.14595935 64.12276649 -7.4645495 61.36874012 -6.875 58.4375 C-6.70613281 57.66341797 -6.53726563 56.88933594 -6.36328125 56.09179688 C-3.80753289 44.00733318 -0.3393996 24.3212008 -6 13 C-6.70191226 5.86389201 -6.70191226 5.86389201 -3.5625 2 C-1 0 -1 0 0 0 Z " fill="#010101" transform="translate(193,214)"/>
<path d="M0 0 C-0.625 1.875 -0.625 1.875 -2 4 C-7.59240804 6.50186676 -14.06684692 7.54967369 -20 9 C-20.66 14.28 -21.32 19.56 -22 25 C-17.28753179 23.40295765 -17.28753179 23.40295765 -12.57739258 21.79907227 C-9.07470472 20.62173397 -5.64498287 19.61575439 -2 19 C-2.57344937 21.86724686 -2.8614515 22.8614515 -5 25 C-6.96173607 25.56452837 -8.94510426 26.05563537 -10.9375 26.5 C-14.60925071 27.32090174 -16.84133814 27.89422543 -20 30 C-20.99 30 -21.98 30 -23 30 C-22.98839844 30.60585937 -22.97679687 31.21171875 -22.96484375 31.8359375 C-22.90678908 37.22672847 -23.17364178 42.42735868 -23.87890625 47.7734375 C-24.00422509 50.07768716 -23.6762671 51.80588896 -23 54 C-22.20078125 53.66226563 -21.4015625 53.32453125 -20.578125 52.9765625 C-13.06539042 49.9256163 -6.03809004 47.98332254 2 47 C2.83402344 46.88914063 3.66804688 46.77828125 4.52734375 46.6640625 C6.34959728 46.42707347 8.17451229 46.2106332 10 46 C9.5 47.8125 9.5 47.8125 8 50 C3.47210861 52.18009586 -0.60221265 53.13640145 -5.5625 53.8125 C-12.0849138 54.77632166 -17.73162584 57.08912998 -23.75 59.66015625 C-26.20386062 60.67178389 -28.41371113 61.4762765 -31 62 C-31.02714735 59.77090129 -31.04646254 57.54170633 -31.0625 55.3125 C-31.07990234 53.45044922 -31.07990234 53.45044922 -31.09765625 51.55078125 C-31.01359278 48.4942335 -30.59648749 45.97436174 -30 43 C-29.81859773 41.24472029 -29.66489813 39.48641496 -29.53515625 37.7265625 C-29.45716797 36.7365625 -29.37917969 35.7465625 -29.29882812 34.7265625 C-29.14189024 32.66691486 -28.98821815 30.60701566 -28.83789062 28.546875 C-27.73471132 14.73471132 -27.73471132 14.73471132 -25 12 C-25.66 11.34 -26.32 10.68 -27 10 C-22.11247827 5.14390928 -17.66479811 2.68824754 -11 1 C-10.113125 0.773125 -9.22625 0.54625 -8.3125 0.3125 C-5.52278243 -0.06448886 -2.81138597 -0.06538107 0 0 Z " fill="#010101" transform="translate(224,144)"/>
<path d="M0 0 C0.26781918 6.99305639 -0.44010568 13.17546235 -2 20 C1.96 20 5.92 20 10 20 C9.93039063 18.97519531 9.86078125 17.95039063 9.7890625 16.89453125 C9.73276134 15.53391998 9.6781637 14.17323747 9.625 12.8125 C9.54958984 11.80219727 9.54958984 11.80219727 9.47265625 10.77148438 C9.38904138 7.91464283 9.35141289 5.69222076 11.36972046 3.53813171 C12.91314697 2.35875448 14.45657349 1.17937724 16 0 C16.09897181 5.05365292 16.17151603 10.10674024 16.21972656 15.16113281 C16.23982628 16.87998279 16.26711089 18.59876452 16.30175781 20.31738281 C16.35035034 22.78988489 16.37298435 25.2614821 16.390625 27.734375 C16.41127014 28.50118591 16.43191528 29.26799683 16.45318604 30.05804443 C16.45469096 33.64670006 16.29335445 35.61132421 14.10058594 38.51660156 C12 40 12 40 10 40 C9.67 34.72 9.34 29.44 9 24 C8.67 24.33 8.34 24.66 8 25 C6.31391034 25.07205511 4.62499341 25.08386068 2.9375 25.0625 C2.01839844 25.05347656 1.09929687 25.04445312 0.15234375 25.03515625 C-0.55792969 25.02355469 -1.26820313 25.01195312 -2 25 C-2.70661261 29.02130452 -2.70661261 29.02130452 -3.18359375 33.07421875 C-3.67787159 38.53144958 -3.67787159 38.53144958 -5.375 41 C-7 42 -7 42 -10 42 C-10.12530762 34.48154294 -10.12530762 34.48154294 -9.52294922 32.16674805 C-8.95771172 29.82478595 -8.72625903 27.59247114 -8.53515625 25.19140625 C-8.45716797 24.27939453 -8.37917969 23.36738281 -8.29882812 22.42773438 C-8.14162218 20.52177467 -7.98796011 18.61551926 -7.83789062 16.70898438 C-6.3874989 0 -6.3874989 0 0 0 Z " fill="#010101" transform="translate(167,160)"/>
<path d="M0 0 C-0.57344937 2.86724686 -0.8614515 3.8614515 -3 6 C-5.06227676 6.72920283 -7.15041766 7.38642343 -9.25 8 C-13.5286339 9.26190124 -17.77149218 10.57915033 -22 12 C-21.98428955 13.31718018 -21.9685791 14.63436035 -21.95239258 15.99145508 C-21.89814614 20.87225239 -21.8636691 25.753023 -21.83520508 30.6340332 C-21.8201064 32.74768554 -21.79962574 34.86130648 -21.77368164 36.97485352 C-21.73734603 40.01065815 -21.72028456 43.04604906 -21.70703125 46.08203125 C-21.69154739 47.02899368 -21.67606354 47.97595612 -21.66011047 48.95161438 C-21.65988388 49.83230087 -21.65965729 50.71298737 -21.65942383 51.62036133 C-21.65276199 52.39535477 -21.64610016 53.17034821 -21.63923645 53.96882629 C-22.09927229 56.55892363 -22.89898458 57.45372946 -25 59 C-25.99 59 -26.98 59 -28 59 C-28 43.82 -28 28.64 -28 13 C-33.94 14.32 -39.88 15.64 -46 17 C-47.32 16.67 -48.64 16.34 -50 16 C-43.38301557 7.65684571 -28.34452738 6.7641475 -18.46484375 5.57421875 C-14.75931414 4.96011181 -11.65975943 3.85631614 -8.1875 2.4375 C-2.18696884 0 -2.18696884 0 0 0 Z " fill="#010101" transform="translate(167,151)"/>
<path d="M0 0 C0.03738281 1.21171875 0.07476562 2.4234375 0.11328125 3.671875 C0.45519224 12.90532986 1.10824481 21.98516519 2.5 31.125 C2.63059814 31.98319336 2.76119629 32.84138672 2.89575195 33.72558594 C3.51677773 37.98976701 3.51677773 37.98976701 5 42 C5.53367187 41.79503906 6.06734375 41.59007812 6.6171875 41.37890625 C12.41395572 39.282843 17.85732066 38.37189499 24 38 C22.84826645 40.46800047 21.95216435 42.04783565 20 44 C18.09712423 44.2336865 16.19318635 44.46144362 14.28515625 44.6484375 C11.11260827 45.1365218 8.25701946 46.21985675 5.2734375 47.37890625 C2.46030667 48.14744199 -0.09779677 48.09563134 -3 48 C-3.13277344 46.85660156 -3.26554687 45.71320313 -3.40234375 44.53515625 C-3.5805031 43.0442438 -3.75890082 41.55335982 -3.9375 40.0625 C-4.06801758 38.93038086 -4.06801758 38.93038086 -4.20117188 37.77539062 C-4.34324099 34.07812542 -4.34324099 34.07812542 -6 31 C-6.33793349 26.75829302 -6.32511968 22.50343082 -6.375 18.25 C-6.41238281 17.05632813 -6.44976562 15.86265625 -6.48828125 14.6328125 C-6.58743149 4.78388884 -6.58743149 4.78388884 -3.5390625 1.671875 C-1 0 -1 0 0 0 Z " fill="#010101" transform="translate(108,22)"/>
<path d="M0 0 C0.6264291 9.39643643 -2.94923725 18.23717083 -6 27 C-4.69675781 26.98259766 -4.69675781 26.98259766 -3.3671875 26.96484375 C-2.21476563 26.95582031 -1.06234375 26.94679687 0.125 26.9375 C1.26195312 26.92589844 2.39890625 26.91429687 3.5703125 26.90234375 C6.8129156 26.994673 9.81932612 27.38610094 13 28 C11.125 31.875 11.125 31.875 10 33 C2.30738185 33.43737294 -5.35617729 32.84262613 -13 32 C-12.71517632 30.58194169 -12.42181856 29.16559621 -12.125 27.75 C-11.96257812 26.96109375 -11.80015625 26.1721875 -11.6328125 25.359375 C-11 23 -11 23 -10.01171875 21.13671875 C-8.13697909 17.17732649 -7.79535895 12.70484471 -7.07421875 8.41015625 C-6.13611189 5.43209337 -3.83769211 0 0 0 Z " fill="#010101" transform="translate(147,222)"/>
</svg>
